#format: frame checksums
#version: 2
#hash: MD5
#extradata 0,                              42, e89deaac1c1a77d78033d7d9c66b8264
#tb 0: 1/61440
#media_type 0: video
#codec_id 0: ffv1
#dimensions 0: 320x180
#sar 0: 0/1
#stream#, dts,        pts, duration,     size, hash
0,          0,          0,     2048,     9452, 3e77d49c5e0e361546ac7884ab426d2b
0,       2048,       2048,     2048,     8459, 3c1ea6a05818671a853dcb611cae1320
0,       4096,       4096,     2048,     9254, e2064d2cd6acaff4a5364c018125bc3f
0,       6144,       6144,     2048,     9499, afbc606bb1c57fa6377ac7fc6b9960eb
0,       8192,       8192,     2048,     8816, 088262942afaab09e5d242d5a12ad499
0,      10240,      10240,     2048,     9333, 9b1b7fdac6651a0829acfcfad4a502e5
0,      12288,      12288,     2048,     9734, aa577be593d27d48fbec615598f7b72c
0,      14336,      14336,     2048,     8974, b4359d64b7f4d23de0132ab3cf95a1e0
0,      16384,      16384,     2048,    10106, 62517a243a575edf0553744acb53b658
0,      18432,      18432,     2048,     9689, 771d689070fbe686818947f0c86c1d56
0,      20480,      20480,     2048,    10712, 69d2c8fe9d0280824734ac3406c98ce1
0,      22528,      22528,     2048,     9664, 6b0366b780cf8c91dd0b8b884b835c33
0,      24576,      24576,     2048,    10479, 696d8577606a6a53ab3ed95396f83029
0,      26624,      26624,     2048,    10472, 19e6cf804783be1a7067c3d4ed74c3ec
0,      28672,      28672,     2048,     9865, 1f410d5e44d630c19c67ac45a08d58b4
0,      30720,      30720,     2048,    10122, 2cb002b88ad4c7b828399bf0842e9cd5
0,      32768,      32768,     2048,    10597, 9f2575fcd1317bff35bb83ce6c839f5c
0,      34816,      34816,     2048,     9763, ecfe1593cdf6e30f5122428f85d6d4d7
0,      36864,      36864,     2048,    10725, 25c1f74a61d2dd1f8e8686f7d5e32065
0,      38912,      38912,     2048,    10457, 769fe75651cdb6e7de635eda27abea09
0,      40960,      40960,     2048,    11086, 9a126e9b43f64c58241df357f11968a9
0,      43008,      43008,     2048,    10301, f911a72abbff61a2fb1f9f6f48478973
0,      45056,      45056,     2048,    10858, 7638e35733e9457f2d116aa40098d87a
0,      47104,      47104,     2048,    11043, c3f4ca3be2c4a4c97c8f794c64054148
0,      49152,      49152,     2048,    10525, 022ba7b1373fbaf2378b405b35c89807
0,      51200,      51200,     2048,    10953, 82a30185cf8db655f3dc4520147c36df
0,      53248,      53248,     2048,    11243, de185b5c7afd851588ca013e78bdb91e
0,      55296,      55296,     2048,    10613, b7e51345491b4f246c5bc238f9882666
0,      57344,      57344,     2048,    11543, b14e4cf309483a5aa7d2298a7d33de10
0,      59392,      59392,     2048,    11262, 3ce5519aa16d73b654d93f86ec17dce9
0,      61440,      61440,     2048,    11295, 234f88dbe28c43107f28c490810a7b23
0,      63488,      63488,     2048,     4414, 2b6e8cf7d9f0e62d9ae01c047eeb5ecb
0,      65536,      65536,     2048,     4666, 1d43059c4af16f8b65d7b4af244b83c3
0,      67584,      67584,     2048,     4590, 05e5ccdb604ac3f8b8352905b48483e1
0,      69632,      69632,     2048,     4395, 74a74b3b63df8f5e458a902452fa8ac2
0,      71680,      71680,     2048,     4559, 8f0279fc79dc69a33fd6f75ed9965fb5
0,      73728,      73728,     2048,     4715, 0192dad263e35850689dc7b1cc1bb34c
0,      75776,      75776,     2048,     4528, f8d34e5b03be7b3299ce4dabf76a76b6
0,      77824,      77824,     2048,     4867, 4a335e03d4cbe94e1620e242629085df
0,      79872,      79872,     2048,     4698, fe6bda4a62e8f0736211208afb79576f
0,      81920,      81920,     2048,     4481, c45b0df706fe59fa2b4fe56056b0c3a2
0,      83968,      83968,     2048,     4097, 41a9eaa03b42f356b088794a7e461820
0,      86016,      86016,     2048,     4347, a63a5f2042e1951b6887f3f9d8110763
0,      88064,      88064,     2048,     4369, 9f66de3f9ced2ffb664e9d7cf50ee8f9
0,      90112,      90112,     2048,     4119, e308731e79b2360043ce45914c22bc90
0,      92160,      92160,     2048,     4365, 1ddde56cf65f9a4c9b92e33c951e8373
0,      94208,      94208,     2048,     4459, 3218e6eedd537c1b1e3005983d3eb240
0,      96256,      96256,     2048,     4233, bf6ccd4d51046fdf75519a2a8e5cf43b
0,      98304,      98304,     2048,     4595, f92ff10a5140d1f48118796400a6269e
0,     100352,     100352,     2048,     4465, 08ffcc462059f11dff4e5c0b64a21f03
0,     102400,     102400,     2048,     4631, 3ca277a14677a6daae20eafa8d486712
0,     104448,     104448,     2048,     4154, 676f687eb87ccf4086415b2cc17de382
0,     106496,     106496,     2048,     4502, 97aaaffe371bd22d6a7fb3e372695a0f
0,     108544,     108544,     2048,     4493, 8200f2c827af5efe543f9d2dca891ae5
0,     110592,     110592,     2048,     4192, cb2adc1267501408a3d1fa5a12fb2afd
0,     112640,     112640,     2048,     4455, 2aef8ea78e2c23ddb8563c8cb7b83f47
0,     114688,     114688,     2048,     4600, 3387ee01c09a987c1669a856f50ea21a
0,     116736,     116736,     2048,     4382, f9289a57f0892a69ce92ff37f3bed51d
0,     118784,     118784,     2048,     4761, e85c725086ae487deb96b725aa1d7d6e
0,     120832,     120832,     2048,     4504, adae5ec20648257463895a49aaaf5324
0,     122880,     122880,     2048,    10902, 931bc6a62808f4a07e75442c587d1aad
0,     124928,     124928,     2048,     9928, a4b0165b2c5d25d133bd51f5859bcaee
0,     126976,     126976,     2048,    11144, 3ae90ead22463f8f99a014b73b9ded91
0,     129024,     129024,     2048,    10662, f91e4851a700b4b8666ae9f66cc9fdc7
0,     131072,     131072,     2048,    10927, 59be832a9f09afed30cef700f360e8cb
0,     133120,     133120,     2048,    10990, 6a0516e6529434911c4ca8112b7bd752
0,     135168,     135168,     2048,    11183, 54ea41a08e27a709e9c185d196838aea
0,     137216,     137216,     2048,    11100, ae88f11bac603879d8f6b1c056a5b035
0,     139264,     139264,     2048,    11784, 775431dbcbb11150680f819658d9beb8
0,     141312,     141312,     2048,    11612, 25befd76ab2b5bea77ec228c65a0b354
0,     143360,     143360,     2048,    10435, 805ff1826b969502339910f01a3f762a
0,     145408,     145408,     2048,     9844, f1632abb47b998b16c5cd2ae7499d067
0,     147456,     147456,     2048,    10775, 0eaf6304e4452530f01cf14d60ebe0cc
0,     149504,     149504,     2048,    10530, 659dc5ed8c1220fbad5003114d5d7463
0,     151552,     151552,     2048,    10154, dded611a42e79aa3c28775009832dfe5
0,     153600,     153600,     2048,    10698, fbd779a3f5e74b665516a2717f979f82
0,     155648,     155648,     2048,    10917, ebeae47a7239b314bc8d45ba09e224cc
0,     157696,     157696,     2048,     9667, 765ad8d14a2fb0536fe0cd3c340c366f
0,     159744,     159744,     2048,    11304, 5e9c155cc24757e095d030850f69affe
0,     161792,     161792,     2048,    10948, f6cd6f3ffccf8468f811be87172216bf
0,     163840,     163840,     2048,    11844, bda4582b93b243617930bdcc437a8e44
0,     165888,     165888,     2048,    10867, 4aec00a2ab0db4a5eb2cd36863277bf6
0,     167936,     167936,     2048,    11672, c2d8352f4d1a4183d5b206e709a5007a
0,     169984,     169984,     2048,    11594, 315f73a162684b21cbf8a259d3bca61c
0,     172032,     172032,     2048,    10619, 2d48880e84aaa3a535f6af5d48fe2159
0,     174080,     174080,     2048,    11593, 8328cadd41111fc1dd491f217263100d
0,     176128,     176128,     2048,    11749, bf9d8a9b479303dba0436c4ab96cf935
0,     178176,     178176,     2048,    10818, 1dd17ac9400bc89ce8e09eea88d517b6
0,     180224,     180224,     2048,    12068, 98d63978b96bc79d55b844be8e1bc732
0,     182272,     182272,     2048,    11284, 3210008b4ae9fe5b4be2ada8607683b1
0,     184320,     184320,     2048,    11284, 3210008b4ae9fe5b4be2ada8607683b1
